<?xml version="1.0" encoding="UTF-8"?>
<svg xmlns="http://www.w3.org/2000/svg" width="864" height="244" viewBox="0 0 864 244" role="img" aria-label="GitHub Activity">
  <defs>
    <linearGradient id="bg" x1="0" y1="0" x2="1" y2="1">
      <stop offset="0%" stop-color="#07090c"/>
      <stop offset="58%" stop-color="#10151b"/>
      <stop offset="100%" stop-color="#20110a"/>
    </linearGradient>
    <radialGradient id="fire" cx="76%" cy="78%" r="45%">
      <stop offset="0%" stop-color="#ffb22e" stop-opacity=".85"/>
      <stop offset="34%" stop-color="#f97316" stop-opacity=".32"/>
      <stop offset="100%" stop-color="#f97316" stop-opacity="0"/>
    </radialGradient>
    <filter id="glow">
      <feDropShadow dx="0" dy="0" stdDeviation="4" flood-color="#f97316" flood-opacity=".72"/>
    </filter>
    <style><![CDATA[
      svg { font-family: "IBM Plex Sans", "Segoe UI", Arial, sans-serif; }
      .bg { fill: url(#bg); }
      .ring { fill: none; stroke: #f97316; stroke-width: 1.2; opacity: .34; }
      .title { fill: #f8fafc; font-size: 24px; font-weight: 800; }
      .subtitle { fill: #94a3b8; font-size: 13px; }
      .label { fill: #fed7aa; font-size: 12px; font-weight: 700; text-transform: uppercase; }
      .text { fill: #e5e7eb; font-size: 14px; font-weight: 650; }
      .muted { fill: #94a3b8; font-size: 12px; }
      .pill { fill: #121820; stroke: #2b3440; stroke-width: 1; }
      .stat { fill: #111827; stroke: #394150; stroke-width: 1; }
      .number { fill: #fb923c; font-size: 28px; font-weight: 850; filter: url(#glow); }
      .mark { fill: none; stroke: #fb923c; stroke-width: 3; stroke-linecap: round; stroke-linejoin: round; opacity: .78; filter: url(#glow); }
    ]]></style>
  </defs>
  <rect class="bg" width="864" height="244" rx="18"/>
  <rect width="864" height="244" fill="url(#fire)" rx="18"/>
  <circle class="ring" cx="746" cy="192" r="92"/>
  <circle class="ring" cx="746" cy="192" r="122"/>
  <path class="mark" d="M748 43 C708 76 708 118 746 140 C778 159 791 190 758 218 C805 194 818 149 781 119 C751 94 759 63 807 38"/>
  <path class="mark" d="M730 118 C701 114 681 100 670 78 C703 83 727 96 746 119"/>
  <path class="mark" d="M776 118 C805 114 826 100 836 78 C803 83 779 96 760 119"/>
  <text class="title" x="34" y="43">GitHub Activity</text>
  <text class="subtitle" x="34" y="66">A concise view of contribution volume, current streak, and longest streak.</text>
  <rect class="stat" x="34" y="104" width="236" height="104" rx="14"/>
      <text class="number" x="56" y="146">712</text>
      <text class="text" x="56" y="172">Total Contributions</text>
      <text class="muted" x="56" y="194">Jan 1, 2026 - Present</text>
  <rect class="stat" x="314" y="104" width="236" height="104" rx="14"/>
      <text class="number" x="336" y="146">0</text>
      <text class="text" x="336" y="172">Current Streak</text>
      <text class="muted" x="336" y="194">No streak</text>
  <rect class="stat" x="594" y="104" width="236" height="104" rx="14"/>
      <text class="number" x="616" y="146">51</text>
      <text class="text" x="616" y="172">Longest Streak</text>
      <text class="muted" x="616" y="194">Feb 17 - Apr 8</text>
</svg>
