<?xml version="1.0" encoding="UTF-8"?>
<svg
  xmlns="http://www.w3.org/2000/svg"
  width="864"
  height="414"
  viewBox="0 0 864 414"
  role="img"
  aria-label="Frequently used tech stacks"
>
  <defs>
    <linearGradient id="panel" x1="0" y1="0" x2="1" y2="1">
      <stop offset="0%" stop-color="#0b1016" />
      <stop offset="100%" stop-color="#0f141b" />
    </linearGradient>
    <style><![CDATA[
      svg {
        font-family: "IBM Plex Sans", "Segoe UI", Arial, sans-serif;
      }
      .bg {
        fill: url(#panel);
      }
      .title {
        fill: #e6edf3;
        font-size: 20px;
        font-weight: 700;
      }
      .section-title {
        fill: #c9d1d9;
        font-size: 13px;
        font-weight: 600;
      }
      .tile {
        stroke: rgba(255, 255, 255, 0.08);
        stroke-width: 1;
      }
      .tile-text {
        font-weight: 700;
        text-anchor: middle;
      }
    ]]></style>
  </defs>

  <rect class="bg" x="0" y="0" width="864" height="414" rx="18" />
  <text class="title" x="36" y="32">Frequently Used Tech Stacks</text>
  <text class="section-title" x="36" y="56">Languages</text>
      <g transform="translate(234, 76)">
            <rect class="tile" width="56" height="56" rx="14" fill="#3776ab" />
            <text class="tile-text" x="28" y="32" font-size="12" fill="#ffffff">Python</text>
          </g>
      <g transform="translate(302, 76)">
            <rect class="tile" width="56" height="56" rx="14" fill="#e34f26" />
            <text class="tile-text" x="28" y="32.666666666666664" font-size="14" fill="#ffffff">HTML</text>
          </g>
      <g transform="translate(370, 76)">
            <rect class="tile" width="56" height="56" rx="14" fill="#1572b6" />
            <text class="tile-text" x="28" y="33" font-size="15" fill="#ffffff">CSS</text>
          </g>
      <g transform="translate(438, 76)">
            <rect class="tile" width="56" height="56" rx="14" fill="#f7df1e" />
            <text class="tile-text" x="28" y="33.333333333333336" font-size="16" fill="#1f2328">JS</text>
          </g>
      <g transform="translate(506, 76)">
            <rect class="tile" width="56" height="56" rx="14" fill="#4f6bd8" />
            <text class="tile-text" x="28" y="33.333333333333336" font-size="16" fill="#ffffff">C</text>
          </g>
      <g transform="translate(574, 76)">
            <rect class="tile" width="56" height="56" rx="14" fill="#00599c" />
            <text class="tile-text" x="28" y="33" font-size="15" fill="#ffffff">C++</text>
          </g>
      <g transform="translate(234, 144)">
            <rect class="tile" width="56" height="56" rx="14" fill="#5e5086" />
            <text class="tile-text" x="28" y="32" font-size="12" fill="#ffffff">Haskell</text>
          </g>
      <g transform="translate(302, 144)">
            <rect class="tile" width="56" height="56" rx="14" fill="#ea2d2e" />
            <text class="tile-text" x="28" y="32.666666666666664" font-size="14" fill="#ffffff">Java</text>
          </g>
      <g transform="translate(370, 144)">
            <rect class="tile" width="56" height="56" rx="14" fill="#512bd4" />
            <text class="tile-text" x="28" y="33.333333333333336" font-size="16" fill="#ffffff">C#</text>
          </g>
  <text class="section-title" x="36" y="218">Tools</text>
      <g transform="translate(234, 238)">
            <rect class="tile" width="56" height="56" rx="14" fill="#f05032" />
            <text class="tile-text" x="28" y="33" font-size="15" fill="#ffffff">Git</text>
          </g>
      <g transform="translate(302, 238)">
            <rect class="tile" width="56" height="56" rx="14" fill="#1f2328" />
            <text class="tile-text" x="28" y="32" font-size="12" fill="#ffffff">GitHub</text>
          </g>
      <g transform="translate(370, 238)">
            <rect class="tile" width="56" height="56" rx="14" fill="#c71a36" />
            <text class="tile-text" x="28" y="32.333333333333336" font-size="13" fill="#ffffff">Maven</text>
          </g>
      <g transform="translate(438, 238)">
            <rect class="tile" width="56" height="56" rx="14" fill="#f5792a" />
            <text class="tile-text" x="28" y="32" font-size="12" fill="#ffffff">Blender</text>
          </g>
  <text class="section-title" x="36" y="312">Frameworks &amp; Engines</text>
      <g transform="translate(234, 332)">
            <rect class="tile" width="56" height="56" rx="14" fill="#61dafb" />
            <text class="tile-text" x="28" y="32.333333333333336" font-size="13" fill="#0b111a">React</text>
          </g>
      <g transform="translate(302, 332)">
            <rect class="tile" width="56" height="56" rx="14" fill="#111111" />
            <text class="tile-text" x="28" y="32.333333333333336" font-size="13" fill="#ffffff">Unity</text>
          </g>
</svg>
