<?xml version="1.0" encoding="UTF-8"?>
<svg
  xmlns="http://www.w3.org/2000/svg"
  width="864"
  height="550"
  viewBox="0 0 864 550"
  role="img"
  aria-label="Frequently used tech stacks"
>
  <defs>
    <linearGradient id="panel" x1="0" y1="0" x2="1" y2="1">
      <stop offset="0%" stop-color="#0b1016" />
      <stop offset="100%" stop-color="#0f141b" />
    </linearGradient>
    <style><![CDATA[
      svg {
        font-family: "IBM Plex Sans", "Segoe UI", Arial, sans-serif;
      }
      .bg {
        fill: url(#panel);
      }
      .title {
        fill: #e6edf3;
        font-size: 20px;
        font-weight: 700;
      }
      .section-title {
        fill: #c9d1d9;
        font-size: 13px;
        font-weight: 600;
      }
      .tile {
        stroke: rgba(255, 255, 255, 0.08);
        stroke-width: 1;
      }
      .tile-text {
        font-weight: 700;
        text-anchor: middle;
      }
    ]]></style>
  </defs>

  <rect class="bg" x="0" y="0" width="864" height="550" rx="18" />
  <text class="title" x="36" y="32">Frequently Used Tech Stacks</text>
  <text class="section-title" x="36" y="56">Data Structures & Algorithms</text>
      <g transform="translate(234, 76)">
            <rect class="tile" width="56" height="56" rx="14" fill="#4f6bd8" />
            <text class="tile-text" x="28" y="33.333333333333336" font-size="16" fill="#ffffff">C</text>
          </g>
      <g transform="translate(302, 76)">
            <rect class="tile" width="56" height="56" rx="14" fill="#00599c" />
            <text class="tile-text" x="28" y="33" font-size="15" fill="#ffffff">C++</text>
          </g>
      <g transform="translate(370, 76)">
            <rect class="tile" width="56" height="56" rx="14" fill="#b7410e" />
            <text class="tile-text" x="28" y="32.666666666666664" font-size="14" fill="#ffffff">Rust</text>
          </g>
  <text class="section-title" x="36" y="150">Web Development</text>
      <g transform="translate(234, 170)">
            <rect class="tile" width="56" height="56" rx="14" fill="#e34f26" />
            <text class="tile-text" x="28" y="32.666666666666664" font-size="14" fill="#ffffff">HTML</text>
          </g>
      <g transform="translate(302, 170)">
            <rect class="tile" width="56" height="56" rx="14" fill="#1572b6" />
            <text class="tile-text" x="28" y="33" font-size="15" fill="#ffffff">CSS</text>
          </g>
      <g transform="translate(370, 170)">
            <rect class="tile" width="56" height="56" rx="14" fill="#f7df1e" />
            <text class="tile-text" x="28" y="33.333333333333336" font-size="16" fill="#1f2328">JS</text>
          </g>
      <g transform="translate(438, 170)">
            <rect class="tile" width="56" height="56" rx="14" fill="#3178c6" />
            <text class="tile-text" x="28" y="33.333333333333336" font-size="16" fill="#ffffff">TS</text>
          </g>
      <g transform="translate(506, 170)">
            <rect class="tile" width="56" height="56" rx="14" fill="#00add8" />
            <text class="tile-text" x="28" y="33.333333333333336" font-size="16" fill="#ffffff">Go</text>
          </g>
      <g transform="translate(574, 170)">
            <rect class="tile" width="56" height="56" rx="14" fill="#3776ab" />
            <text class="tile-text" x="28" y="33.333333333333336" font-size="16" fill="#ffffff">Py</text>
          </g>
      <g transform="translate(234, 238)">
            <rect class="tile" width="56" height="56" rx="14" fill="#336791" />
            <text class="tile-text" x="28" y="33.333333333333336" font-size="16" fill="#ffffff">PG</text>
          </g>
      <g transform="translate(302, 238)">
            <rect class="tile" width="56" height="56" rx="14" fill="#13aa52" />
            <text class="tile-text" x="28" y="32.333333333333336" font-size="13" fill="#ffffff">Mongo</text>
          </g>
      <g transform="translate(370, 238)">
            <rect class="tile" width="56" height="56" rx="14" fill="#61dafb" />
            <text class="tile-text" x="28" y="32.333333333333336" font-size="13" fill="#0b111a">React</text>
          </g>
      <g transform="translate(438, 238)">
            <rect class="tile" width="56" height="56" rx="14" fill="#646cff" />
            <text class="tile-text" x="28" y="32.666666666666664" font-size="14" fill="#ffffff">Vite</text>
          </g>
      <g transform="translate(506, 238)">
            <rect class="tile" width="56" height="56" rx="14" fill="#111111" />
            <text class="tile-text" x="28" y="32.666666666666664" font-size="14" fill="#ffffff">Next</text>
          </g>
      <g transform="translate(574, 238)">
            <rect class="tile" width="56" height="56" rx="14" fill="#06b6d4" />
            <text class="tile-text" x="28" y="33.333333333333336" font-size="16" fill="#ffffff">TW</text>
          </g>
      <g transform="translate(234, 306)">
            <rect class="tile" width="56" height="56" rx="14" fill="#333333" />
            <text class="tile-text" x="28" y="33.333333333333336" font-size="16" fill="#ffffff">Ex</text>
          </g>
      <g transform="translate(302, 306)">
            <rect class="tile" width="56" height="56" rx="14" fill="#539e43" />
            <text class="tile-text" x="28" y="32.666666666666664" font-size="14" fill="#ffffff">Node</text>
          </g>
      <g transform="translate(370, 306)">
            <rect class="tile" width="56" height="56" rx="14" fill="#ffca28" />
            <text class="tile-text" x="28" y="32.666666666666664" font-size="14" fill="#1f2328">Fire</text>
          </g>
      <g transform="translate(438, 306)">
            <rect class="tile" width="56" height="56" rx="14" fill="#d82c20" />
            <text class="tile-text" x="28" y="32.333333333333336" font-size="13" fill="#ffffff">Redis</text>
          </g>
      <g transform="translate(506, 306)">
            <rect class="tile" width="56" height="56" rx="14" fill="#2496ed" />
            <text class="tile-text" x="28" y="32" font-size="12" fill="#ffffff">Docker</text>
          </g>
      <g transform="translate(574, 306)">
            <rect class="tile" width="56" height="56" rx="14" fill="#009639" />
            <text class="tile-text" x="28" y="32.333333333333336" font-size="13" fill="#ffffff">Nginx</text>
          </g>
      <g transform="translate(234, 374)">
            <rect class="tile" width="56" height="56" rx="14" fill="#cb3837" />
            <text class="tile-text" x="28" y="33" font-size="15" fill="#ffffff">NPM</text>
          </g>
      <g transform="translate(302, 374)">
            <rect class="tile" width="56" height="56" rx="14" fill="#f05032" />
            <text class="tile-text" x="28" y="33" font-size="15" fill="#ffffff">Git</text>
          </g>
      <g transform="translate(370, 374)">
            <rect class="tile" width="56" height="56" rx="14" fill="#fdd835" />
            <text class="tile-text" x="28" y="32.333333333333336" font-size="13" fill="#1f2328">Linux</text>
          </g>
      <g transform="translate(438, 374)">
            <rect class="tile" width="56" height="56" rx="14" fill="#e10098" />
            <text class="tile-text" x="28" y="32.333333333333336" font-size="13" fill="#ffffff">Graph</text>
          </g>
      <g transform="translate(506, 374)">
            <rect class="tile" width="56" height="56" rx="14" fill="#0c344b" />
            <text class="tile-text" x="28" y="32" font-size="12" fill="#ffffff">Prisma</text>
          </g>
      <g transform="translate(574, 374)">
            <rect class="tile" width="56" height="56" rx="14" fill="#3ecf8e" />
            <text class="tile-text" x="28" y="32.666666666666664" font-size="14" fill="#0b111a">Supa</text>
          </g>
  <text class="section-title" x="36" y="448">Data Science</text>
      <g transform="translate(234, 468)">
            <rect class="tile" width="56" height="56" rx="14" fill="#3776ab" />
            <text class="tile-text" x="28" y="33.333333333333336" font-size="16" fill="#ffffff">Py</text>
          </g>
      <g transform="translate(302, 468)">
            <rect class="tile" width="56" height="56" rx="14" fill="#4dabcf" />
            <text class="tile-text" x="28" y="33.333333333333336" font-size="16" fill="#ffffff">NP</text>
          </g>
      <g transform="translate(370, 468)">
            <rect class="tile" width="56" height="56" rx="14" fill="#6f62ff" />
            <text class="tile-text" x="28" y="33.333333333333336" font-size="16" fill="#ffffff">PD</text>
          </g>
      <g transform="translate(438, 468)">
            <rect class="tile" width="56" height="56" rx="14" fill="#f7931e" />
            <text class="tile-text" x="28" y="33.333333333333336" font-size="16" fill="#1f2328">SK</text>
          </g>
</svg>
